<?xml version="1.0" encoding="UTF-8" standalone="no"?>
<svg
   xmlns:dc="http://purl.org/dc/elements/1.1/"
   xmlns:cc="http://creativecommons.org/ns#"
   xmlns:rdf="http://www.w3.org/1999/02/22-rdf-syntax-ns#"
   xmlns:svg="http://www.w3.org/2000/svg"
   xmlns="http://www.w3.org/2000/svg"
   xmlns:sodipodi="http://sodipodi.sourceforge.net/DTD/sodipodi-0.dtd"
   xmlns:inkscape="http://www.inkscape.org/namespaces/inkscape"
   version="1.1"
   viewBox="0.0 0.0 1091.9107611548557 764.6509186351706"
   fill="none"
   stroke="none"
   stroke-linecap="square"
   stroke-miterlimit="10"
   id="svg2"
   inkscape:version="0.91 r13725"
   sodipodi:docname="gitworkflows-45.svg">
  <metadata
     id="metadata729">
    <rdf:RDF>
      <cc:Work
         rdf:about="">
        <dc:format>image/svg+xml</dc:format>
        <dc:type
           rdf:resource="http://purl.org/dc/dcmitype/StillImage" />
        <dc:title></dc:title>
      </cc:Work>
    </rdf:RDF>
  </metadata>
  <defs
     id="defs727" />
  <sodipodi:namedview
     pagecolor="#ffffff"
     bordercolor="#666666"
     borderopacity="1"
     objecttolerance="10"
     gridtolerance="10"
     guidetolerance="10"
     inkscape:pageopacity="0"
     inkscape:pageshadow="2"
     inkscape:window-width="1366"
     inkscape:window-height="659"
     id="namedview725"
     showgrid="false"
     inkscape:zoom="0.87295884"
     inkscape:cx="347.32999"
     inkscape:cy="535.59732"
     inkscape:window-x="0"
     inkscape:window-y="31"
     inkscape:window-maximized="1"
     inkscape:current-layer="svg2" />
  <clipPath
     id="p.0">
    <path
       d="m0 0l1091.9108 0l0 764.65094l-1091.9108 0l0 -764.65094z"
       clip-rule="nonzero"
       id="path5" />
  </clipPath>
  <path
     style="fill:#000000;fill-opacity:0;fill-rule:evenodd"
     inkscape:connector-curvature="0"
     id="path9"
     d="m 0,0 1091.9108,0 0,764.65094 -1091.9108,0 z" />
  <path
     style="fill:#000000;fill-opacity:0;fill-rule:evenodd"
     inkscape:connector-curvature="0"
     id="path23"
     d="m 471.52234,532.0268 523.1181,0 0,37.16534 -523.1181,0 z" />
  <path
     style="fill:#000000;fill-opacity:0;fill-rule:evenodd"
     inkscape:connector-curvature="0"
     id="path47"
     d="m 666.47156,119.73035 140.69287,0 0,53.88977 -140.69287,0 z" />
  <path
     style="fill:#000000;fill-opacity:0;fill-rule:evenodd"
     inkscape:connector-curvature="0"
     id="path57"
     d="m 54.40251,177.37117 901.7952,-1.57481" />
  <path
     style="fill-rule:evenodd;stroke:#3d85c6;stroke-width:3;stroke-linecap:butt;stroke-linejoin:round"
     inkscape:connector-curvature="0"
     id="path59"
     d="m 54.40251,177.37117 884.9104,-1.54532" />
  <path
     style="fill-rule:evenodd;stroke:#3d85c6;stroke-width:3;stroke-linecap:butt"
     inkscape:connector-curvature="0"
     id="path61"
     d="m 939.3129,175.82585 7.14355,4.9834 7.1261,-5.00832 -7.14355,-4.9834 z" />
  <path
     style="fill:#000000;fill-opacity:0;fill-rule:evenodd"
     inkscape:connector-curvature="0"
     id="path75"
     d="m 77.46426,127.15601 57.63779,0 0,37.1712 -57.63779,0 z" />
  <path
     style="fill:#000000;fill-opacity:0;fill-rule:evenodd"
     inkscape:connector-curvature="0"
     id="path79"
     d="m 146.37569,507.00024 619.14966,0" />
  <path
     style="fill-rule:evenodd;stroke:#000000;stroke-width:2;stroke-linecap:butt;stroke-linejoin:round"
     inkscape:connector-curvature="0"
     id="path81"
     d="m 146.37569,507.00024 607.14966,0" />
  <path
     style="fill:#000000;fill-rule:evenodd;stroke:#000000;stroke-width:2;stroke-linecap:butt"
     inkscape:connector-curvature="0"
     id="path83"
     d="m 753.5253,510.3037 9.07623,-3.30347 -9.07623,-3.30346 z" />
  <path
     style="fill:#000000;fill-opacity:0;fill-rule:evenodd"
     inkscape:connector-curvature="0"
     id="path85"
     d="m 437.70792,471.33658 67.84253,0 0,53.88974 -67.84253,0 z" />
  <path
     style="fill:#000000;fill-rule:nonzero"
     inkscape:connector-curvature="0"
     id="path87"
     d="m 451.61417,496.75656 0.23437,1.48437 q -0.70312,0.14063 -1.26562,0.14063 -0.90625,0 -1.40625,-0.28125 -0.5,-0.29688 -0.70313,-0.75 -0.20312,-0.46875 -0.20312,-1.98438 l 0,-5.65625 -1.23438,0 0,-1.3125 1.23438,0 0,-2.4375 1.65625,-1 0,3.4375 1.6875,0 0,1.3125 -1.6875,0 0,5.75 q 0,0.71875 0.0781,0.92188 0.0937,0.20312 0.29688,0.32812 0.20312,0.125 0.57812,0.125 0.26563,0 0.73438,-0.0781 z m 1.54269,-10.1875 0,-1.90625 1.67188,0 0,1.90625 -1.67188,0 z m 0,11.6875 0,-9.85938 1.67188,0 0,9.85938 -1.67188,0 z m 4.12919,0 0,-9.85938 1.5,0 0,1.39063 q 0.45312,-0.71875 1.21875,-1.15625 0.78125,-0.45313 1.76562,-0.45313 1.09375,0 1.79688,0.45313 0.70312,0.45312 0.98437,1.28125 1.17188,-1.73438 3.04688,-1.73438 1.46875,0 2.25,0.8125 0.79687,0.8125 0.79687,2.5 l 0,6.76563 -1.67187,0 0,-6.20313 q 0,-1 -0.15625,-1.4375 -0.15625,-0.45312 -0.59375,-0.71875 -0.42188,-0.26562 -1,-0.26562 -1.03125,0 -1.71875,0.6875 -0.6875,0.6875 -0.6875,2.21875 l 0,5.71875 -1.67188,0 0,-6.40625 q 0,-1.10938 -0.40625,-1.65625 -0.40625,-0.5625 -1.34375,-0.5625 -0.70312,0 -1.3125,0.375 -0.59375,0.35937 -0.85937,1.07812 -0.26563,0.71875 -0.26563,2.0625 l 0,5.10938 -1.67187,0 z m 22.2908,-3.17188 1.71875,0.21875 q -0.40625,1.5 -1.51563,2.34375 -1.09375,0.82813 -2.8125,0.82813 -2.15625,0 -3.42187,-1.32813 -1.26563,-1.32812 -1.26563,-3.73437 0,-2.48438 1.26563,-3.85938 1.28125,-1.375 3.32812,-1.375 1.98438,0 3.23438,1.34375 1.25,1.34375 1.25,3.79688 0,0.14062 -0.0156,0.4375 l -7.34375,0 q 0.0937,1.625 0.92188,2.48437 0.82812,0.85938 2.0625,0.85938 0.90625,0 1.54687,-0.46875 0.65625,-0.48438 1.04688,-1.54688 z m -5.48438,-2.70312 5.5,0 q -0.10937,-1.23438 -0.625,-1.85938 -0.79687,-0.96875 -2.07812,-0.96875 -1.14063,0 -1.9375,0.78125 -0.78125,0.76563 -0.85938,2.04688 z" />
  <path
     style="fill:#000000;fill-opacity:0;fill-rule:evenodd"
     inkscape:connector-curvature="0"
     id="path89"
     d="m 59.20566,84.83818 892.18896,0.157478" />
  <path
     style="fill-rule:evenodd;stroke:#a64d79;stroke-width:3;stroke-linecap:butt;stroke-linejoin:round"
     inkscape:connector-curvature="0"
     id="path91"
     d="m 59.20566,84.83818 875.3041,0.154503" />
  <path
     style="fill-rule:evenodd;stroke:#a64d79;stroke-width:3;stroke-linecap:butt"
     inkscape:connector-curvature="0"
     id="path93"
     d="m 934.50977,84.992676 7.13397,4.997124 7.13568,-4.994606 -7.13391,-4.997116 z" />
  <path
     style="fill:#93c47d;fill-rule:evenodd"
     inkscape:connector-curvature="0"
     id="path95"
     d="m 966.3177,81.4039 0,0 c 0,-2.835403 2.29852,-5.133957 5.13391,-5.133957 l 68.53519,0 c 1.3617,0 2.6675,0.540894 3.6303,1.5037 0.9629,0.962807 1.5038,2.268647 1.5038,3.630257 l 0,20.53523 c 0,2.83541 -2.2986,5.13396 -5.1341,5.13396 l -68.53519,0 0,0 c -2.83539,0 -5.13391,-2.29855 -5.13391,-5.13396 z" />
  <path
     style="fill-rule:evenodd;stroke:#000000;stroke-width:2;stroke-linecap:butt;stroke-linejoin:round"
     inkscape:connector-curvature="0"
     id="path97"
     d="m 966.3177,81.4039 0,0 c 0,-2.835403 2.29852,-5.133957 5.13391,-5.133957 l 68.53519,0 c 1.3617,0 2.6675,0.540894 3.6303,1.5037 0.9629,0.962807 1.5038,2.268647 1.5038,3.630257 l 0,20.53523 c 0,2.83541 -2.2986,5.13396 -5.1341,5.13396 l -68.53519,0 0,0 c -2.83539,0 -5.13391,-2.29855 -5.13391,-5.13396 z" />
  <path
     style="fill:#000000;fill-rule:nonzero"
     inkscape:connector-curvature="0"
     id="path99"
     d="m 978.07135,98.591515 0,-9.859375 1.5,0 0,1.390625 q 0.45313,-0.71875 1.21875,-1.15625 0.78125,-0.453125 1.76563,-0.453125 1.09375,0 1.79687,0.453125 0.70313,0.453125 0.98438,1.28125 1.17187,-1.734375 3.04687,-1.734375 1.46875,0 2.25,0.8125 0.79688,0.8125 0.79688,2.5 l 0,6.765625 -1.67188,0 0,-6.203125 q 0,-1 -0.15625,-1.4375 -0.15625,-0.453125 -0.59375,-0.71875 -0.42187,-0.265625 -1,-0.265625 -1.03125,0 -1.71875,0.6875 -0.6875,0.6875 -0.6875,2.21875 l 0,5.71875 -1.67187,0 0,-6.40625 q 0,-1.109375 -0.40625,-1.65625 -0.40625,-0.5625 -1.34375,-0.5625 -0.70313,0 -1.3125,0.375 -0.59375,0.359375 -0.85938,1.078125 -0.26562,0.71875 -0.26562,2.0625 l 0,5.109375 -1.67188,0 z m 21.97835,-1.21875 q -0.93752,0.796875 -1.79689,1.125 -0.85938,0.3125 -1.84375,0.3125 -1.60938,0 -2.48438,-0.78125 -0.875,-0.796875 -0.875,-2.03125 0,-0.734375 0.32813,-1.328125 0.32812,-0.59375 0.85937,-0.953125 0.53125,-0.359375 1.20313,-0.546875 0.5,-0.140625 1.48437,-0.25 2.03125,-0.25 2.98438,-0.578125 0,-0.34375 0,-0.4375 0,-1.015625 -0.46875,-1.4375 -0.64063,-0.5625 -1.90625,-0.5625 -1.17188,0 -1.73438,0.40625 -0.5625,0.40625 -0.82812,1.46875 l -1.64063,-0.234375 q 0.23438,-1.046875 0.73438,-1.6875 0.51562,-0.640625 1.46875,-0.984375 0.96875,-0.359375 2.25,-0.359375 1.26562,0 2.04687,0.296875 0.78127,0.296875 1.15627,0.75 0.375,0.453125 0.5156,1.140625 0.094,0.421875 0.094,1.53125 l 0,2.234375 q 0,2.328125 0.094,2.953125 0.1094,0.609375 0.4375,1.171875 l -1.75,0 q -0.2656,-0.515625 -0.3281,-1.21875 z m -0.14064,-3.71875 q -0.90625,0.359375 -2.73438,0.625 -1.03125,0.140625 -1.45312,0.328125 -0.42188,0.1875 -0.65625,0.546875 -0.23438,0.359375 -0.23438,0.796875 0,0.671875 0.5,1.125 0.51563,0.4375 1.48438,0.4375 0.96875,0 1.71875,-0.421875 0.75,-0.4375 1.10937,-1.15625 0.26563,-0.578125 0.26563,-1.671875 l 0,-0.609375 z m 4.09444,-6.75 0,-1.90625 1.6719,0 0,1.90625 -1.6719,0 z m 0,11.6875 0,-9.859375 1.6719,0 0,9.859375 -1.6719,0 z m 4.1292,0 0,-9.859375 1.5,0 0,1.40625 q 1.0937,-1.625 3.1406,-1.625 0.8906,0 1.6406,0.328125 0.75,0.3125 1.1094,0.84375 0.375,0.515625 0.5313,1.21875 0.094,0.46875 0.094,1.625 l 0,6.0625 -1.6719,0 0,-6 q 0,-1.015625 -0.2031,-1.515625 -0.1875,-0.515625 -0.6875,-0.8125 -0.5,-0.296875 -1.1719,-0.296875 -1.0625,0 -1.8437,0.671875 -0.7656,0.671875 -0.7656,2.578125 l 0,5.375 -1.6719,0 z m 14.032,-1.5 0.2343,1.484375 q -0.7031,0.140625 -1.2656,0.140625 -0.9062,0 -1.4062,-0.28125 -0.5,-0.296875 -0.7032,-0.75 -0.2031,-0.46875 -0.2031,-1.984375 l 0,-5.65625 -1.2344,0 0,-1.3125 1.2344,0 0,-2.4375 1.6563,-1 0,3.4375 1.6875,0 0,1.3125 -1.6875,0 0,5.75 q 0,0.71875 0.078,0.921875 0.094,0.203125 0.2969,0.328125 0.2031,0.125 0.5781,0.125 0.2656,0 0.7344,-0.07813 z" />
  <path
     style="fill:#93c47d;fill-rule:evenodd"
     inkscape:connector-curvature="0"
     id="path101"
     d="m 964.9213,164.59212 0,0 c 0,-2.8354 2.29858,-5.13396 5.13397,-5.13396 l 73.51163,0 c 1.3615,0 2.6675,0.5409 3.6302,1.50371 0.9628,0.9628 1.5038,2.26865 1.5038,3.63025 l 0,20.53523 c 0,2.83541 -2.2986,5.13396 -5.134,5.13396 l -73.51163,0 c -2.83539,0 -5.13397,-2.29855 -5.13397,-5.13396 z" />
  <path
     style="fill-rule:evenodd;stroke:#000000;stroke-width:2;stroke-linecap:butt;stroke-linejoin:round"
     inkscape:connector-curvature="0"
     id="path103"
     d="m 964.9213,164.59212 0,0 c 0,-2.8354 2.29858,-5.13396 5.13397,-5.13396 l 73.51163,0 c 1.3615,0 2.6675,0.5409 3.6302,1.50371 0.9628,0.9628 1.5038,2.26865 1.5038,3.63025 l 0,20.53523 c 0,2.83541 -2.2986,5.13396 -5.134,5.13396 l -73.51163,0 c -2.83539,0 -5.13397,-2.29855 -5.13397,-5.13396 z" />
  <path
     style="fill:#000000;fill-rule:nonzero"
     inkscape:connector-curvature="0"
     id="path105"
     d="m 976.67505,181.77972 0,-9.85938 1.5,0 0,1.39063 q 0.45313,-0.71875 1.21875,-1.15625 0.78125,-0.45313 1.76563,-0.45313 1.09375,0 1.79687,0.45313 0.70313,0.45312 0.98438,1.28125 1.17187,-1.73438 3.04687,-1.73438 1.46875,0 2.25,0.8125 0.79688,0.8125 0.79688,2.5 l 0,6.76563 -1.67188,0 0,-6.20313 q 0,-1 -0.15625,-1.4375 -0.15625,-0.45312 -0.59375,-0.71875 -0.42187,-0.26562 -1,-0.26562 -1.03125,0 -1.71875,0.6875 -0.6875,0.6875 -0.6875,2.21875 l 0,5.71875 -1.67187,0 0,-6.40625 q 0,-1.10938 -0.40625,-1.65625 -0.40625,-0.5625 -1.34375,-0.5625 -0.70313,0 -1.3125,0.375 -0.59375,0.35937 -0.85938,1.07812 -0.26562,0.71875 -0.26562,2.0625 l 0,5.10938 -1.67188,0 z m 21.97827,-1.21875 q -0.9375,0.79687 -1.79687,1.125 -0.85938,0.3125 -1.84375,0.3125 -1.60938,0 -2.48438,-0.78125 -0.875,-0.79688 -0.875,-2.03125 0,-0.73438 0.32813,-1.32813 0.32812,-0.59375 0.85937,-0.95312 0.53125,-0.35938 1.20313,-0.54688 0.5,-0.14062 1.48437,-0.25 2.03125,-0.25 2.98438,-0.57812 0,-0.34375 0,-0.4375 0,-1.01563 -0.46875,-1.4375 -0.64063,-0.5625 -1.90625,-0.5625 -1.17188,0 -1.73438,0.40625 -0.5625,0.40625 -0.82812,1.46875 l -1.64063,-0.23438 q 0.23438,-1.04687 0.73438,-1.6875 0.51562,-0.64062 1.46875,-0.98437 0.96875,-0.35938 2.25,-0.35938 1.26562,0 2.04687,0.29688 0.78125,0.29687 1.15625,0.75 0.375,0.45312 0.51558,1.14062 0.094,0.42188 0.094,1.53125 l 0,2.23438 q 0,2.32812 0.094,2.95312 0.1094,0.60938 0.4375,1.17188 l -1.74995,0 q -0.26563,-0.51563 -0.32813,-1.21875 z m -0.14062,-3.71875 q -0.90625,0.35937 -2.73438,0.625 -1.03125,0.14062 -1.45312,0.32812 -0.42188,0.1875 -0.65625,0.54688 -0.23438,0.35937 -0.23438,0.79687 0,0.67188 0.5,1.125 0.51563,0.4375 1.48438,0.4375 0.96875,0 1.71875,-0.42187 0.75,-0.4375 1.10937,-1.15625 0.26563,-0.57813 0.26563,-1.67188 l 0,-0.60937 z m 3.407,2 1.6562,-0.26563 q 0.1407,1 0.7657,1.53125 0.6406,0.51563 1.7812,0.51563 1.1563,0 1.7031,-0.46875 0.5625,-0.46875 0.5625,-1.09375 0,-0.5625 -0.4843,-0.89063 -0.3438,-0.21875 -1.7032,-0.5625 -1.8437,-0.46875 -2.5625,-0.79687 -0.7031,-0.34375 -1.0781,-0.9375 -0.3594,-0.60938 -0.3594,-1.32813 0,-0.65625 0.2969,-1.21875 0.3125,-0.5625 0.8281,-0.9375 0.3907,-0.28125 1.0625,-0.48437 0.6719,-0.20313 1.4375,-0.20313 1.1719,0 2.0469,0.34375 0.875,0.32813 1.2813,0.90625 0.4218,0.5625 0.5781,1.51563 l -1.625,0.21875 q -0.1094,-0.75 -0.6563,-1.17188 -0.5312,-0.4375 -1.5,-0.4375 -1.1562,0 -1.6406,0.39063 -0.4844,0.375 -0.4844,0.875 0,0.32812 0.2032,0.59375 0.2031,0.26562 0.6406,0.4375 0.25,0.0937 1.4687,0.4375 1.7657,0.46875 2.4688,0.76562 0.7031,0.29688 1.0937,0.875 0.4063,0.57813 0.4063,1.4375 0,0.82813 -0.4844,1.57813 -0.4844,0.73437 -1.4062,1.14062 -0.9219,0.39063 -2.0782,0.39063 -1.9218,0 -2.9375,-0.79688 -1,-0.79687 -1.2812,-2.35937 z m 13.6562,1.4375 0.2344,1.48437 q -0.7031,0.14063 -1.2656,0.14063 -0.9063,0 -1.4063,-0.28125 -0.5,-0.29688 -0.7031,-0.75 -0.2031,-0.46875 -0.2031,-1.98438 l 0,-5.65625 -1.2344,0 0,-1.3125 1.2344,0 0,-2.4375 1.6562,-1 0,3.4375 1.6875,0 0,1.3125 -1.6875,0 0,5.75 q 0,0.71875 0.078,0.92188 0.094,0.20312 0.2968,0.32812 0.2032,0.125 0.5782,0.125 0.2656,0 0.7343,-0.0781 z m 8.2771,-1.67188 1.7188,0.21875 q -0.4063,1.5 -1.5156,2.34375 -1.0939,0.82813 -2.8126,0.82813 -2.1563,0 -3.4219,-1.32813 -1.2656,-1.32812 -1.2656,-3.73437 0,-2.48438 1.2656,-3.85938 1.2813,-1.375 3.3281,-1.375 1.9844,0 3.2345,1.34375 1.25,1.34375 1.25,3.79688 0,0.14062 -0.016,0.4375 l -7.3439,0 q 0.094,1.625 0.9219,2.48437 0.8281,0.85938 2.0625,0.85938 0.9063,0 1.5469,-0.46875 0.6562,-0.48438 1.0469,-1.54688 z m -5.4844,-2.70312 5.5,0 q -0.1094,-1.23438 -0.625,-1.85938 -0.7969,-0.96875 -2.0781,-0.96875 -1.1407,0 -1.9375,0.78125 -0.7813,0.76563 -0.8594,2.04688 z m 9.0944,5.875 0,-9.85938 1.5,0 0,1.5 q 0.5781,-1.04687 1.0625,-1.375 0.4844,-0.34375 1.0781,-0.34375 0.8438,0 1.7188,0.54688 l -0.5781,1.54687 q -0.6094,-0.35937 -1.2344,-0.35937 -0.5469,0 -0.9844,0.32812 -0.4219,0.32813 -0.6094,0.90625 -0.2812,0.89063 -0.2812,1.95313 l 0,5.15625 -1.6719,0 z" />
  <path
     style="fill:#93c47d;fill-rule:evenodd"
     inkscape:connector-curvature="0"
     id="path137"
     d="m 964.9213,389.06998 0,0 c 0,-2.83539 2.29858,-5.13394 5.13397,-5.13394 l 68.53533,0 c 1.3615,0 2.6673,0.54089 3.6302,1.50369 0.9628,0.9628 1.5037,2.26865 1.5037,3.63025 l 0,20.53525 c 0,2.83539 -2.2986,5.13394 -5.1339,5.13394 l -68.53533,0 0,0 c -2.83539,0 -5.13397,-2.29855 -5.13397,-5.13394 z" />
  <path
     style="fill-rule:evenodd;stroke:#000000;stroke-width:2;stroke-linecap:butt;stroke-linejoin:round"
     inkscape:connector-curvature="0"
     id="path139"
     d="m 964.9213,389.06998 0,0 c 0,-2.83539 2.29858,-5.13394 5.13397,-5.13394 l 68.53533,0 c 1.3615,0 2.6673,0.54089 3.6302,1.50369 0.9628,0.9628 1.5037,2.26865 1.5037,3.63025 l 0,20.53525 c 0,2.83539 -2.2986,5.13394 -5.1339,5.13394 l -68.53533,0 0,0 c -2.83539,0 -5.13397,-2.29855 -5.13397,-5.13394 z" />
  <path
     style="fill:#000000;fill-rule:nonzero"
     inkscape:connector-curvature="0"
     id="path141"
     d="m 976.67505,406.2576 0,-9.85937 1.5,0 0,1.40625 q 1.09375,-1.625 3.14063,-1.625 0.89062,0 1.64062,0.32812 0.75,0.3125 1.10938,0.84375 0.375,0.51563 0.53125,1.21875 0.0937,0.46875 0.0937,1.625 l 0,6.0625 -1.67188,0 0,-6 q 0,-1.01562 -0.20312,-1.51562 -0.1875,-0.51563 -0.6875,-0.8125 -0.5,-0.29688 -1.17188,-0.29688 -1.0625,0 -1.84375,0.67188 -0.76562,0.67187 -0.76562,2.57812 l 0,5.375 -1.67188,0 z m 17.12567,-3.17187 1.71875,0.21875 q -0.40625,1.5 -1.51562,2.34375 -1.09375,0.82812 -2.8125,0.82812 -2.15625,0 -3.42188,-1.32812 -1.26562,-1.32813 -1.26562,-3.73438 0,-2.48437 1.26562,-3.85937 1.28125,-1.375 3.32813,-1.375 1.98437,0 3.23437,1.34375 1.25,1.34375 1.25,3.79687 0,0.14063 -0.0156,0.4375 l -7.34375,0 q 0.0937,1.625 0.92187,2.48438 0.82813,0.85937 2.0625,0.85937 0.90625,0 1.54688,-0.46875 0.65625,-0.48437 1.04687,-1.54687 z m -5.48437,-2.70313 5.5,0 q -0.10938,-1.23437 -0.625,-1.85937 -0.79688,-0.96875 -2.07813,-0.96875 -1.14062,0 -1.9375,0.78125 -0.78125,0.76562 -0.85937,2.04687 z m 8.00073,5.875 3.59375,-5.125 -3.32813,-4.73437 2.09375,0 1.51565,2.3125 q 0.4219,0.65625 0.6719,1.10937 0.4218,-0.60937 0.7656,-1.09375 l 1.6562,-2.32812 1.9844,0 -3.3906,4.64062 3.6562,5.21875 -2.0468,0 -2.0313,-3.0625 -0.5312,-0.82812 -2.5938,3.89062 -2.01562,0 z m 14.09372,-1.5 0.2344,1.48438 q -0.7031,0.14062 -1.2656,0.14062 -0.9063,0 -1.4063,-0.28125 -0.5,-0.29687 -0.7031,-0.75 -0.2031,-0.46875 -0.2031,-1.98437 l 0,-5.65625 -1.2344,0 0,-1.3125 1.2344,0 0,-2.4375 1.6562,-1 0,3.4375 1.6875,0 0,1.3125 -1.6875,0 0,5.75 q 0,0.71875 0.078,0.92187 0.094,0.20313 0.2968,0.32813 0.2032,0.125 0.5782,0.125 0.2656,0 0.7343,-0.0781 z" />
  <path
     style="fill:#000000;fill-opacity:0;fill-rule:evenodd"
     inkscape:connector-curvature="0"
     id="path275"
     d="m 514.47766,102.9959 131.4961,0 0,43.55906 -131.4961,0 z" />
  <path
     style="fill:#000000;fill-opacity:0;fill-rule:evenodd"
     inkscape:connector-curvature="0"
     id="path303"
     d="m 26.905512,96.22572 106.173228,0 0,29.79527 -106.173228,0 z" />
  <path
     style="fill:#000000;fill-opacity:0;fill-rule:evenodd"
     inkscape:connector-curvature="0"
     id="path309"
     d="m 420.74078,2.6246718e-7 152,0 0,32.22047373753282 -152,0 z" />
  <path
     style="fill:#000000;fill-opacity:0;fill-rule:evenodd"
     inkscape:connector-curvature="0"
     id="path375"
     d="m 828.3022,126.28979 57.63776,0 0,37.1712 -57.63776,0 z" />
  <path
     style="fill:#000000;fill-opacity:0;fill-rule:evenodd"
     inkscape:connector-curvature="0"
     id="path379"
     d="m 15.994751,304.8399 131.496059,0 0,55.96851 -131.496059,0 z" />
  <path
     style="fill:#0000ff;fill-rule:evenodd"
     inkscape:connector-curvature="0"
     id="path385"
     d="m 61.97468,176.58804 0,0 c 0,-4.96622 3.581722,-8.99213 7.999996,-8.99213 l 0,0 c 2.121735,0 4.156563,0.94738 5.65686,2.63373 1.50029,1.68636 2.34314,3.97354 2.34314,6.3584 l 0,0 c 0,4.96622 -3.581718,8.99213 -8,8.99213 l 0,0 c -4.418274,0 -7.999996,-4.02591 -7.999996,-8.99213 z" />
  <path
     style="fill-rule:evenodd;stroke:#000000;stroke-width:2;stroke-linecap:butt;stroke-linejoin:round"
     inkscape:connector-curvature="0"
     id="path387"
     d="m 61.97468,176.58804 0,0 c 0,-4.96622 3.581722,-8.99213 7.999996,-8.99213 l 0,0 c 2.121735,0 4.156563,0.94738 5.65686,2.63373 1.50029,1.68636 2.34314,3.97354 2.34314,6.3584 l 0,0 c 0,4.96622 -3.581718,8.99213 -8,8.99213 l 0,0 c -4.418274,0 -7.999996,-4.02591 -7.999996,-8.99213 z" />
  <path
     style="fill:#000000;fill-rule:nonzero"
     inkscape:connector-curvature="0"
     id="path389"
     d="m 68.35029,183.50804 0,-1.90625 1.90625,0 0,1.90625 -1.90625,0 z" />
  <path
     style="fill:#000000;fill-opacity:0;fill-rule:evenodd"
     inkscape:connector-curvature="0"
     id="path415"
     d="m 901.97375,174.33266 0,214.45668" />
  <path
     style="fill:#000000;fill-opacity:0;fill-rule:evenodd"
     inkscape:connector-curvature="0"
     id="path421"
     d="m 848.2992,314.51462 37.98425,155.9685" />
  <path
     style="fill:#000000;fill-opacity:0;fill-rule:evenodd"
     inkscape:connector-curvature="0"
     id="path425"
     d="m 890.0933,402.97748 71.81103,1.85828" />
  <path
     style="fill:#000000;fill-opacity:0;fill-rule:evenodd"
     inkscape:connector-curvature="0"
     id="path519"
     d="m 789.78503,94.37223 120,0 0,37.16535 -120,0 z" />
  <path
     style="fill:#000000;fill-opacity:0;fill-rule:evenodd"
     inkscape:connector-curvature="0"
     id="path577"
     d="m 471.5223,622.67456 562.5196,0 0,61.88977 -562.5196,0 z" />
  <path
     style="fill:#000000;fill-opacity:0;fill-rule:evenodd"
     inkscape:connector-curvature="0"
     id="path609"
     d="m 797.97375,86.772575 0,82.708655" />
  <path
     style="fill:#000000;fill-opacity:0;fill-rule:evenodd"
     inkscape:connector-curvature="0"
     id="path675"
     d="m 108.44095,692.3097 285.03937,0 0,61.88977 -285.03937,0 z" />
  <path
     style="fill:#93c47d;fill-rule:evenodd"
     inkscape:connector-curvature="0"
     id="path685"
     d="m 931.34644,256.82443 0,0 c 0,-7.72635 6.26349,-13.98979 13.98981,-13.98979 l 100.02045,0 c 3.7103,0 7.2687,1.47392 9.8922,4.09752 2.6237,2.62359 4.0975,6.18194 4.0975,9.89227 l 0,55.95743 c 0,7.72635 -6.2634,13.9898 -13.9897,13.9898 l -100.02045,0 c -7.72632,0 -13.98981,-6.26345 -13.98981,-13.9898 z" />
  <path
     style="fill-rule:evenodd;stroke:#000000;stroke-width:2;stroke-linecap:butt;stroke-linejoin:round"
     inkscape:connector-curvature="0"
     id="path687"
     d="m 931.34644,256.82443 0,0 c 0,-7.72635 6.26349,-13.98979 13.98981,-13.98979 l 100.02045,0 c 3.7103,0 7.2687,1.47392 9.8922,4.09752 2.6237,2.62359 4.0975,6.18194 4.0975,9.89227 l 0,55.95743 c 0,7.72635 -6.2634,13.9898 -13.9897,13.9898 l -100.02045,0 c -7.72632,0 -13.98981,-6.26345 -13.98981,-13.9898 z" />
  <path
     style="fill:#000000;fill-rule:nonzero"
     inkscape:connector-curvature="0"
     id="path689"
     d="m 946.10016,269.72314 0,-8.54688 -1.48438,0 0,-1.3125 1.48438,0 0,-1.04687 q 0,-0.98438 0.17187,-1.46875 0.23438,-0.65625 0.84375,-1.04688 0.60938,-0.40625 1.70313,-0.40625 0.70312,0 1.5625,0.15625 l -0.25,1.46875 q -0.51563,-0.0937 -0.98438,-0.0937 -0.76562,0 -1.07812,0.32813 -0.3125,0.3125 -0.3125,1.20312 l 0,0.90625 1.92187,0 0,1.3125 -1.92187,0 0,8.54688 -1.65625,0 z m 11.52704,-3.17188 1.71875,0.21875 q -0.40625,1.5 -1.51563,2.34375 -1.09375,0.82813 -2.8125,0.82813 -2.15625,0 -3.42187,-1.32813 -1.26563,-1.32812 -1.26563,-3.73437 0,-2.48438 1.26563,-3.85938 1.28125,-1.375 3.32812,-1.375 1.98438,0 3.23438,1.34375 1.25,1.34375 1.25,3.79688 0,0.14062 -0.0156,0.4375 l -7.34375,0 q 0.0937,1.625 0.92188,2.48437 0.82812,0.85938 2.0625,0.85938 0.90625,0 1.54687,-0.46875 0.65625,-0.48438 1.04688,-1.54688 z m -5.48438,-2.70312 5.5,0 q -0.10937,-1.23438 -0.625,-1.85938 -0.79687,-0.96875 -2.07812,-0.96875 -1.14063,0 -1.9375,0.78125 -0.78125,0.76563 -0.85938,2.04688 z m 15.54761,4.65625 q -0.9375,0.79687 -1.79687,1.125 -0.85938,0.3125 -1.84375,0.3125 -1.60938,0 -2.48438,-0.78125 -0.875,-0.79688 -0.875,-2.03125 0,-0.73438 0.32813,-1.32813 0.32812,-0.59375 0.85937,-0.95312 0.53125,-0.35938 1.20313,-0.54688 0.5,-0.14062 1.48437,-0.25 2.03125,-0.25 2.98438,-0.57812 0,-0.34375 0,-0.4375 0,-1.01563 -0.46875,-1.4375 -0.64063,-0.5625 -1.90625,-0.5625 -1.17188,0 -1.73438,0.40625 -0.5625,0.40625 -0.82812,1.46875 l -1.64063,-0.23438 q 0.23438,-1.04687 0.73438,-1.6875 0.51562,-0.64062 1.46875,-0.98437 0.96875,-0.35938 2.25,-0.35938 1.26562,0 2.04687,0.29688 0.78125,0.29687 1.15625,0.75 0.375,0.45312 0.51563,1.14062 0.0937,0.42188 0.0937,1.53125 l 0,2.23438 q 0,2.32812 0.0937,2.95312 0.10937,0.60938 0.4375,1.17188 l -1.75,0 q -0.26563,-0.51563 -0.32813,-1.21875 z m -0.14062,-3.71875 q -0.90625,0.35937 -2.73438,0.625 -1.03125,0.14062 -1.45312,0.32812 -0.42188,0.1875 -0.65625,0.54688 -0.23438,0.35937 -0.23438,0.79687 0,0.67188 0.5,1.125 0.51563,0.4375 1.48438,0.4375 0.96875,0 1.71875,-0.42187 0.75,-0.4375 1.10937,-1.15625 0.26563,-0.57813 0.26563,-1.67188 l 0,-0.60937 z m 7.7351,3.4375 0.23438,1.48437 q -0.70313,0.14063 -1.26563,0.14063 -0.90625,0 -1.40625,-0.28125 -0.5,-0.29688 -0.70312,-0.75 -0.20313,-0.46875 -0.20313,-1.98438 l 0,-5.65625 -1.23437,0 0,-1.3125 1.23437,0 0,-2.4375 1.65625,-1 0,3.4375 1.6875,0 0,1.3125 -1.6875,0 0,5.75 q 0,0.71875 0.0781,0.92188 0.0937,0.20312 0.29687,0.32812 0.20313,0.125 0.57813,0.125 0.26562,0 0.73437,-0.0781 z m 7.98017,1.5 0,-1.45313 q -1.14063,1.67188 -3.125,1.67188 -0.85938,0 -1.625,-0.32813 -0.75,-0.34375 -1.125,-0.84375 -0.35938,-0.5 -0.51563,-1.23437 -0.0937,-0.5 -0.0937,-1.5625 l 0,-6.10938 1.67188,0 0,5.46875 q 0,1.3125 0.0937,1.76563 0.15625,0.65625 0.67187,1.03125 0.51563,0.375 1.26563,0.375 0.75,0 1.40625,-0.375 0.65625,-0.39063 0.92187,-1.04688 0.28125,-0.67187 0.28125,-1.9375 l 0,-5.28125 1.67188,0 0,9.85938 -1.5,0 z m 3.90698,0 0,-9.85938 1.5,0 0,1.5 q 0.57812,-1.04687 1.0625,-1.375 0.48437,-0.34375 1.07812,-0.34375 0.84375,0 1.71875,0.54688 l -0.57812,1.54687 q -0.60938,-0.35937 -1.23438,-0.35937 -0.54687,0 -0.98437,0.32812 -0.42188,0.32813 -0.60938,0.90625 -0.28125,0.89063 -0.28125,1.95313 l 0,5.15625 -1.67187,0 z m 12.97824,-3.17188 1.7188,0.21875 q -0.4063,1.5 -1.5156,2.34375 -1.09379,0.82813 -2.81254,0.82813 -2.15625,0 -3.42188,-1.32813 -1.26562,-1.32812 -1.26562,-3.73437 0,-2.48438 1.26562,-3.85938 1.28125,-1.375 3.32813,-1.375 1.98437,0 3.23439,1.34375 1.25,1.34375 1.25,3.79688 0,0.14062 -0.016,0.4375 l -7.34379,0 q 0.0937,1.625 0.92187,2.48437 0.82813,0.85938 2.0625,0.85938 0.90625,0 1.54688,-0.46875 0.65625,-0.48438 1.04684,-1.54688 z m -5.48434,-2.70312 5.50004,0 q -0.1094,-1.23438 -0.62504,-1.85938 -0.79688,-0.96875 -2.07813,-0.96875 -1.14062,0 -1.9375,0.78125 -0.78125,0.76563 -0.85937,2.04688 z m 9.54764,5.875 0,-1.90625 1.9062,0 0,1.90625 q 0,1.04687 -0.375,1.6875 -0.375,0.65625 -1.1719,1 l -0.4687,-0.71875 q 0.5312,-0.21875 0.7812,-0.67188 0.25,-0.45312 0.2813,-1.29687 l -0.9531,0 z" />
  <path
     style="fill:#000000;fill-rule:nonzero"
     inkscape:connector-curvature="0"
     id="path691"
     d="m 947.2408,291.72314 -1.54687,0 0,-13.59375 1.65625,0 0,4.84375 q 1.0625,-1.32813 2.70312,-1.32813 0.90625,0 1.71875,0.375 0.8125,0.35938 1.32813,1.03125 0.53125,0.65625 0.82812,1.59375 0.29688,0.9375 0.29688,2 0,2.53125 -1.25,3.92188 -1.25,1.375 -3,1.375 -1.75,0 -2.73438,-1.45313 l 0,1.23438 z m -0.0156,-5 q 0,1.76562 0.46875,2.5625 0.79687,1.28125 2.14062,1.28125 1.09375,0 1.89063,-0.9375 0.79687,-0.95313 0.79687,-2.84375 0,-1.92188 -0.76562,-2.84375 -0.76563,-0.92188 -1.84375,-0.92188 -1.09375,0 -1.89063,0.95313 -0.79687,0.95312 -0.79687,2.75 z m 15.2976,5 0,-1.45313 q -1.14062,1.67188 -3.125,1.67188 -0.85937,0 -1.625,-0.32813 -0.75,-0.34375 -1.125,-0.84375 -0.35937,-0.5 -0.51562,-1.23437 -0.0937,-0.5 -0.0937,-1.5625 l 0,-6.10938 1.67187,0 0,5.46875 q 0,1.3125 0.0937,1.76563 0.15625,0.65625 0.67188,1.03125 0.51562,0.375 1.26562,0.375 0.75,0 1.40625,-0.375 0.65625,-0.39063 0.92188,-1.04688 0.28125,-0.67187 0.28125,-1.9375 l 0,-5.28125 1.67187,0 0,9.85938 -1.5,0 z m 3.62573,0.8125 1.60938,0.25 q 0.10937,0.75 0.57812,1.09375 0.60938,0.45312 1.6875,0.45312 1.17188,0 1.79688,-0.46875 0.625,-0.45312 0.85937,-1.28125 0.125,-0.51562 0.10938,-2.15625 -1.09375,1.29688 -2.71875,1.29688 -2.03125,0 -3.15625,-1.46875 -1.10938,-1.46875 -1.10938,-3.51563 0,-1.40625 0.51563,-2.59375 0.51562,-1.20312 1.48437,-1.84375 0.96875,-0.65625 2.26563,-0.65625 1.75,0 2.875,1.40625 l 0,-1.1875 1.54687,0 0,8.51563 q 0,2.3125 -0.46875,3.26562 -0.46875,0.96875 -1.48437,1.51563 -1.01563,0.5625 -2.5,0.5625 -1.76563,0 -2.85938,-0.79688 -1.07812,-0.79687 -1.03125,-2.39062 z m 1.375,-5.92188 q 0,1.95313 0.76563,2.84375 0.78125,0.89063 1.9375,0.89063 1.14062,0 1.92187,-0.89063 0.78125,-0.89062 0.78125,-2.78125 0,-1.8125 -0.8125,-2.71875 -0.79687,-0.92187 -1.92187,-0.92187 -1.10938,0 -1.89063,0.90625 -0.78125,0.89062 -0.78125,2.67187 z m 9.7038,5.10938 0,-8.54688 -1.48437,0 0,-1.3125 1.48437,0 0,-1.04687 q 0,-0.98438 0.17188,-1.46875 0.23437,-0.65625 0.84375,-1.04688 0.60937,-0.40625 1.70312,-0.40625 0.70313,0 1.5625,0.15625 l -0.25,1.46875 q -0.51562,-0.0937 -0.98437,-0.0937 -0.76563,0 -1.07813,0.32813 -0.3125,0.3125 -0.3125,1.20312 l 0,0.90625 1.92188,0 0,1.3125 -1.92188,0 0,8.54688 -1.65625,0 z m 4.79272,-11.6875 0,-1.90625 1.67188,0 0,1.90625 -1.67188,0 z m 0,11.6875 0,-9.85938 1.67188,0 0,9.85938 -1.67188,0 z m 3.01978,0 3.59375,-5.125 -3.32812,-4.73438 2.09375,0 1.51562,2.3125 q 0.42188,0.65625 0.67188,1.10938 0.42187,-0.60938 0.76562,-1.09375 l 1.65625,-2.32813 1.98438,0 -3.39063,4.64063 3.65625,5.21875 -2.04687,0 -2.03125,-3.0625 -0.53125,-0.82813 -2.59375,3.89063 -2.01563,0 z" />
  <path
     style="fill:#000000;fill-rule:nonzero"
     inkscape:connector-curvature="0"
     id="path693"
     d="m 947.2408,313.72314 -1.54687,0 0,-13.59375 1.65625,0 0,4.84375 q 1.0625,-1.32813 2.70312,-1.32813 0.90625,0 1.71875,0.375 0.8125,0.35938 1.32813,1.03125 0.53125,0.65625 0.82812,1.59375 0.29688,0.9375 0.29688,2 0,2.53125 -1.25,3.92188 -1.25,1.375 -3,1.375 -1.75,0 -2.73438,-1.45313 l 0,1.23438 z m -0.0156,-5 q 0,1.76562 0.46875,2.5625 0.79687,1.28125 2.14062,1.28125 1.09375,0 1.89063,-0.9375 0.79687,-0.95313 0.79687,-2.84375 0,-1.92188 -0.76562,-2.84375 -0.76563,-0.92188 -1.84375,-0.92188 -1.09375,0 -1.89063,0.95313 -0.79687,0.95312 -0.79687,2.75 z m 8.82885,5 0,-9.85938 1.5,0 0,1.5 q 0.57813,-1.04687 1.0625,-1.375 0.48438,-0.34375 1.07813,-0.34375 0.84375,0 1.71875,0.54688 l -0.57813,1.54687 q -0.60937,-0.35937 -1.23437,-0.35937 -0.54688,0 -0.98438,0.32812 -0.42187,0.32813 -0.60937,0.90625 -0.28125,0.89063 -0.28125,1.95313 l 0,5.15625 -1.67188,0 z m 12.66577,-1.21875 q -0.9375,0.79687 -1.79687,1.125 -0.85938,0.3125 -1.84375,0.3125 -1.60938,0 -2.48438,-0.78125 -0.875,-0.79688 -0.875,-2.03125 0,-0.73438 0.32813,-1.32813 0.32812,-0.59375 0.85937,-0.95312 0.53125,-0.35938 1.20313,-0.54688 0.5,-0.14062 1.48437,-0.25 2.03125,-0.25 2.98438,-0.57812 0,-0.34375 0,-0.4375 0,-1.01563 -0.46875,-1.4375 -0.64063,-0.5625 -1.90625,-0.5625 -1.17188,0 -1.73438,0.40625 -0.5625,0.40625 -0.82812,1.46875 l -1.64063,-0.23438 q 0.23438,-1.04687 0.73438,-1.6875 0.51562,-0.64062 1.46875,-0.98437 0.96875,-0.35938 2.25,-0.35938 1.26562,0 2.04687,0.29688 0.78125,0.29687 1.15625,0.75 0.375,0.45312 0.51563,1.14062 0.0937,0.42188 0.0937,1.53125 l 0,2.23438 q 0,2.32812 0.0937,2.95312 0.10937,0.60938 0.4375,1.17188 l -1.75,0 q -0.26563,-0.51563 -0.32813,-1.21875 z m -0.14062,-3.71875 q -0.90625,0.35937 -2.73438,0.625 -1.03125,0.14062 -1.45312,0.32812 -0.42188,0.1875 -0.65625,0.54688 -0.23438,0.35937 -0.23438,0.79687 0,0.67188 0.5,1.125 0.51563,0.4375 1.48438,0.4375 0.96875,0 1.71875,-0.42187 0.75,-0.4375 1.10937,-1.15625 0.26563,-0.57813 0.26563,-1.67188 l 0,-0.60937 z m 4.07886,4.9375 0,-9.85938 1.5,0 0,1.40625 q 1.09375,-1.625 3.14062,-1.625 0.89063,0 1.64063,0.32813 0.75,0.3125 1.10937,0.84375 0.375,0.51562 0.53125,1.21875 0.0937,0.46875 0.0937,1.625 l 0,6.0625 -1.67187,0 0,-6 q 0,-1.01563 -0.20313,-1.51563 -0.1875,-0.51562 -0.6875,-0.8125 -0.5,-0.29687 -1.17187,-0.29687 -1.0625,0 -1.84375,0.67187 -0.76563,0.67188 -0.76563,2.57813 l 0,5.375 -1.67187,0 z m 16.81323,-3.60938 1.64062,0.21875 q -0.26562,1.6875 -1.375,2.65625 -1.10937,0.95313 -2.73437,0.95313 -2.01563,0 -3.25,-1.3125 -1.21875,-1.32813 -1.21875,-3.79688 0,-1.59375 0.51562,-2.78125 0.53125,-1.20312 1.60938,-1.79687 1.09375,-0.60938 2.35937,-0.60938 1.60938,0 2.625,0.8125 1.01563,0.8125 1.3125,2.3125 l -1.625,0.25 q -0.23437,-1 -0.82812,-1.5 -0.59375,-0.5 -1.42188,-0.5 -1.26562,0 -2.0625,0.90625 -0.78125,0.90625 -0.78125,2.85938 0,1.98437 0.76563,2.89062 0.76562,0.89063 1.98437,0.89063 0.98438,0 1.64063,-0.59375 0.65625,-0.60938 0.84375,-1.85938 z m 2.89062,3.60938 0,-13.59375 1.67188,0 0,4.875 q 1.17187,-1.35938 2.95312,-1.35938 1.09375,0 1.89063,0.4375 0.8125,0.42188 1.15626,1.1875 0.3593,0.76563 0.3593,2.20313 l 0,6.25 -1.67181,0 0,-6.25 q 0,-1.25 -0.54688,-1.8125 -0.54687,-0.57813 -1.53125,-0.57813 -0.75,0 -1.40625,0.39063 -0.64062,0.375 -0.92187,1.04687 -0.28125,0.65625 -0.28125,1.8125 l 0,5.39063 -1.67188,0 z m 17.12569,-3.17188 1.7188,0.21875 q -0.4063,1.5 -1.5157,2.34375 -1.0937,0.82813 -2.8125,0.82813 -2.1562,0 -3.4218,-1.32813 -1.2657,-1.32812 -1.2657,-3.73437 0,-2.48438 1.2657,-3.85938 1.2812,-1.375 3.3281,-1.375 1.9844,0 3.2344,1.34375 1.25,1.34375 1.25,3.79688 0,0.14062 -0.016,0.4375 l -7.3437,0 q 0.094,1.625 0.9219,2.48437 0.8281,0.85938 2.0625,0.85938 0.9062,0 1.5468,-0.46875 0.6563,-0.48438 1.0469,-1.54688 z m -5.4844,-2.70312 5.5,0 q -0.1093,-1.23438 -0.625,-1.85938 -0.7968,-0.96875 -2.0781,-0.96875 -1.1406,0 -1.9375,0.78125 -0.7812,0.76563 -0.8594,2.04688 z m 8.4382,2.9375 1.6563,-0.26563 q 0.1406,1 0.7656,1.53125 0.6406,0.51563 1.7812,0.51563 1.1563,0 1.7032,-0.46875 0.5625,-0.46875 0.5625,-1.09375 0,-0.5625 -0.4844,-0.89063 -0.3438,-0.21875 -1.7031,-0.5625 -1.8438,-0.46875 -2.5625,-0.79687 -0.7032,-0.34375 -1.0782,-0.9375 -0.3593,-0.60938 -0.3593,-1.32813 0,-0.65625 0.2968,-1.21875 0.3125,-0.5625 0.8282,-0.9375 0.3906,-0.28125 1.0625,-0.48437 0.6718,-0.20313 1.4375,-0.20313 1.1718,0 2.0468,0.34375 0.875,0.32813 1.2813,0.90625 0.4219,0.5625 0.5781,1.51563 l -1.625,0.21875 q -0.1094,-0.75 -0.6562,-1.17188 -0.5313,-0.4375 -1.5,-0.4375 -1.1563,0 -1.6407,0.39063 -0.4843,0.375 -0.4843,0.875 0,0.32812 0.2031,0.59375 0.2031,0.26562 0.6406,0.4375 0.25,0.0937 1.4688,0.4375 1.7656,0.46875 2.4687,0.76562 0.7031,0.29688 1.0938,0.875 0.4062,0.57813 0.4062,1.4375 0,0.82813 -0.4844,1.57813 -0.4843,0.73437 -1.4062,1.14062 -0.9219,0.39063 -2.0781,0.39063 -1.9219,0 -2.9375,-0.79688 -1,-0.79687 -1.2813,-2.35937 z" />
</svg>
